<svg width="100" height="100" viewBox="0 0 100 100" fill="none" xmlns="http://www.w3.org/2000/svg">
<circle cx="50" cy="50" r="50" fill="url(#paint0_linear_70_1928)"/>
<path d="M81.3627 48.0164L76.4671 39.5478C76.4671 39.5478 76.4031 39.4518 76.3711 39.4091H76.2751L75.9445 38.8332C75.0379 37.7773 73.7154 37.148 72.3075 37.148H35.1799L38.9449 30.6312H71.2089L65.652 21H36.1718C34.4546 21 32.8654 21.9173 32.0122 23.3998L18.6479 46.5339C17.784 48.0271 17.784 49.8509 18.6479 51.3441L23.5435 59.8128C24.4075 61.306 25.986 62.2126 27.7032 62.2126H64.8201L61.0551 68.7294H28.5671L34.124 78.3499H63.8388C65.556 78.3499 67.1452 77.4326 67.9985 75.9501L81.3521 52.816C82.216 51.3228 82.216 49.499 81.3521 48.0057L81.3627 48.0164ZM70.3876 52.6027H30.487L28.3751 48.9443L29.6337 46.7579H69.5237L71.6355 50.4162L70.377 52.6027H70.3876Z" fill="white"/>
<defs>
<linearGradient id="paint0_linear_70_1928" x1="11" y1="17.5" x2="100" y2="81" gradientUnits="userSpaceOnUse">
<stop stop-color="#018CFF"/>
<stop offset="0.458333" stop-color="#0B5CFF"/>
<stop offset="1" stop-color="#131CC8"/>
</linearGradient>
</defs>
</svg>
